<svg xmlns="http://www.w3.org/2000/svg" version="1.1" xmlns:xlink="http://www.w3.org/1999/xlink" xmlns:svgjs="http://svgjs.dev/svgjs" width="1440" height="600" preserveAspectRatio="none" viewBox="0 0 1440 600"><g mask="url(&quot;#SvgjsMask1032&quot;)" fill="none"><rect width="1440" height="600" x="0" y="0" fill="url(&quot;#SvgjsLinearGradient1033&quot;)"></rect><path d="M1440 0L839.67 0L1440 104.48z" fill="rgba(255, 255, 255, .1)"></path><path d="M839.67 0L1440 104.48L1440 278.82L485.34 0z" fill="rgba(255, 255, 255, .075)"></path><path d="M485.3399999999999 0L1440 278.82L1440 316.56L345.30999999999995 0z" fill="rgba(255, 255, 255, .05)"></path><path d="M345.30999999999995 0L1440 316.56L1440 421.17L234.18999999999994 0z" fill="rgba(255, 255, 255, .025)"></path><path d="M0 600L337.01 600L0 566.61z" fill="rgba(0, 0, 0, .1)"></path><path d="M0 566.61L337.01 600L834.11 600L0 544.09z" fill="rgba(0, 0, 0, .075)"></path><path d="M0 544.09L834.11 600L974.23 600L0 540.82z" fill="rgba(0, 0, 0, .05)"></path><path d="M0 540.82L974.23 600L1153.97 600L0 364.9000000000001z" fill="rgba(0, 0, 0, .025)"></path></g><defs><mask id="SvgjsMask1032"><rect width="1440" height="600" fill="#ffffff"></rect></mask><linearGradient x1="14.58%" y1="-35%" x2="85.42%" y2="135%" gradientUnits="userSpaceOnUse" id="SvgjsLinearGradient1033"><stop stop-color="#0e2a47" offset="0"></stop><stop stop-color="#00459e" offset="1"></stop></linearGradient></defs></svg>